<svg id="Layer_1" data-name="Layer 1" xmlns="http://www.w3.org/2000/svg" width="88.1669" height="93.0651" viewBox="0 0 88.1669 93.0651"><defs><style>.cls-1{fill:#3aa675;}</style></defs><title>gridify-g-logo</title><path class="cls-1" d="M46.9758,79.6959a38.3854,38.3854,0,0,1,12.6075-8.7318,37.5361,37.5361,0,0,1,8.2055-2.6135v-7.7H25.8045v44.7831h9.6679a41.9646,41.9646,0,0,1,2.9564-12.5856A42.4615,42.4615,0,0,1,46.9758,79.6959Z" transform="translate(-25.8045 -60.6505)"/><path class="cls-1" d="M49.64,105.4337H67.7888V83.9127a25.1985,25.1985,0,0,0-10.9833,6.504A26.5825,26.5825,0,0,0,49.64,105.4337Z" transform="translate(-25.8045 -60.6505)"/><path class="cls-1" d="M71.9872,105.4337h41.9842V60.6505H71.9872v7.127c.9869-.0778,1.9789-.13,2.9811-.13a37.7539,37.7539,0,0,1,16.9869,3.8689,28.1163,28.1163,0,0,1,5.6626,3.6471v19.01S88.43,82.9006,74.9683,82.9006a26.1942,26.1942,0,0,0-2.9811.1765v22.3565Z" transform="translate(-25.8045 -60.6505)"/><path class="cls-1" d="M87.575,131.7532l.4271-.2212v-22.6H71.9872v25.403a25.2577,25.2577,0,0,0,2.9811.1813A31.5148,31.5148,0,0,0,87.575,131.7532Z" transform="translate(-25.8045 -60.6505)"/><path class="cls-1" d="M102.5322,138.0536a30.9859,30.9859,0,0,1-6.9442,5.8573,39.1345,39.1345,0,0,1-20.62,5.7477c-.9981,0-1.991-.0528-2.9811-.1324v4.1893h41.9842V108.9324H102.7461v28.8994Z" transform="translate(-25.8045 -60.6505)"/><path class="cls-1" d="M65.1388,132.5265a27.3975,27.3975,0,0,0,2.65.9394V108.9324H49.44a26.2235,26.2235,0,0,0,7.3654,17.958A28.7276,28.7276,0,0,0,65.1388,132.5265Z" transform="translate(-25.8045 -60.6505)"/><path class="cls-1" d="M46.9758,137.6112a40.6849,40.6849,0,0,1-8.547-13.0419,42.4516,42.4516,0,0,1-3.0937-15.6369H25.8045v44.7831H67.7888v-4.763a41.9351,41.9351,0,0,1-8.2055-2.4992A39.2123,39.2123,0,0,1,46.9758,137.6112Z" transform="translate(-25.8045 -60.6505)"/></svg>