<svg id="Layer_1" data-name="Layer 1" xmlns="http://www.w3.org/2000/svg" width="398.1847" height="120.3535" viewBox="0 0 398.1847 120.3535"><defs><style>.cls-1{fill:#a2eaca;}</style></defs><title>gridify-logo</title><path class="cls-1" d="M35.7,79.6929a39.0851,39.0851,0,0,1,12.8362-8.89,38.2215,38.2215,0,0,1,8.3544-2.6609v-7.84H14.1449v45.5957h9.8432a42.7264,42.7264,0,0,1,3.01-12.814A43.2348,43.2348,0,0,1,35.7,79.6929Z" transform="translate(-14.1449 -60.302)"/><path class="cls-1" d="M38.4125,105.8978H56.8909V83.9863a25.6555,25.6555,0,0,0-11.1826,6.622A27.0655,27.0655,0,0,0,38.4125,105.8978Z" transform="translate(-14.1449 -60.302)"/><path class="cls-1" d="M61.1656,105.8978h42.7459V60.302H61.1655v7.2563c1.0048-.0792,2.0149-.132,3.0352-.132a38.4387,38.4387,0,0,1,17.2951,3.9391,28.6234,28.6234,0,0,1,5.7654,3.7134v19.355s-9.3549-11.478-23.0605-11.478a26.68,26.68,0,0,0-3.0352.18v22.7622Z" transform="translate(-14.1449 -60.302)"/><path class="cls-1" d="M77.0361,132.6949l.4349-.2253V109.46H61.1655v25.8639a25.7172,25.7172,0,0,0,3.0352.1846A32.0874,32.0874,0,0,0,77.0361,132.6949Z" transform="translate(-14.1449 -60.302)"/><path class="cls-1" d="M92.2647,139.11a31.5429,31.5429,0,0,1-7.07,5.9636,39.8448,39.8448,0,0,1-20.9938,5.852c-1.0162,0-2.0271-.0538-3.0352-.1348v4.2653h42.746V109.46H92.4825v29.4238Z" transform="translate(-14.1449 -60.302)"/><path class="cls-1" d="M54.1928,133.4822a27.8982,27.8982,0,0,0,2.6981.9563V109.46H38.2093a26.7,26.7,0,0,0,7.499,18.2839A29.2518,29.2518,0,0,0,54.1928,133.4822Z" transform="translate(-14.1449 -60.302)"/><path class="cls-1" d="M35.7,138.6591a41.4247,41.4247,0,0,1-8.7021-13.2786,43.2222,43.2222,0,0,1-3.15-15.9206H14.1449v45.5956h42.746v-4.8494a42.6906,42.6906,0,0,1-8.3544-2.5446A39.9218,39.9218,0,0,1,35.7,138.6591Z" transform="translate(-14.1449 -60.302)"/><path class="cls-1" d="M155.3418,91.8323v18.1533s-11.022-4.1494-17.2461,3.2422a12.87,12.87,0,0,0-3.2417,8.8173v33.0655H117.8671V91.8323H134.854v7.0019A26.3916,26.3916,0,0,1,155.3418,91.8323Z" transform="translate(-14.1449 -60.302)"/><path class="cls-1" d="M185.2919,81.07H168.3051V62.9157h16.9868Zm0,74.041H168.3051V91.8323h16.9868Z" transform="translate(-14.1449 -60.302)"/><path class="cls-1" d="M196.96,123.2121a34.2923,34.2923,0,0,1,9.0767-23.4707A30.3881,30.3881,0,0,1,228.34,89.8869c13.6152,0,19.06,9.2061,19.06,9.2061V62.9157H264.518v92.065H247.4008v-7.65s-5.8339,9.3359-19.06,9.3359C210.9643,156.6662,196.96,141.7551,196.96,123.2121Zm45.3843,13.6153a19.9694,19.9694,0,0,0,5.0566-13.4854,19.7314,19.7314,0,0,0-5.0566-13.4863,15.6484,15.6484,0,0,0-23.7295,0,19.7341,19.7341,0,0,0-5.0571,13.4863,19.9723,19.9723,0,0,0,5.0571,13.4854,15.6466,15.6466,0,0,0,23.73,0Zm-3.1123-13.3565a8.8174,8.8174,0,0,1-17.6348,0,8.8174,8.8174,0,1,1,17.6348,0Z" transform="translate(-14.1449 -60.302)"/><path class="cls-1" d="M295.7612,81.07H278.7749V62.9157h16.9863Zm0,74.041H278.7749V91.8323h16.9863Z" transform="translate(-14.1449 -60.302)"/><path class="cls-1" d="M387.3032,155.6291c-7.2617,17.2461-17.6348,25.0264-34.2324,25.0264V164.5764c4.7968,0,13.3554-.5186,17.7646-11.1514L345.0307,91.9616H412.33C400.4,122.3039,388.21,153.5549,387.3032,155.6291Zm2.0742-48.7558H368.76L379.2631,132.03Z" transform="translate(-14.1449 -60.302)"/><rect class="cls-1" x="287.8233" y="2.8497" width="34.9093" height="17.8108"/><rect class="cls-1" x="287.8233" y="31.3471" width="27.0725" height="17.8108"/><rect class="cls-1" x="287.8233" y="59.8444" width="15.6735" height="17.8108"/></svg>