<svg id="Layer_1" data-name="Layer 1" xmlns="http://www.w3.org/2000/svg" width="292.6944" height="120.5231" viewBox="0 0 292.6944 120.5231"><defs><style>.cls-1{fill:#707070;}.cls-2{opacity:0.5;}.cls-3,.cls-5,.cls-6{fill:#fff;}.cls-3{opacity:0.1;}.cls-4,.cls-6{opacity:0.05;}.cls-7{fill:#3aa675;}</style></defs><title>gridify-readme-logo</title><rect class="cls-1" width="292.6944" height="120.5231" rx="8.995"/><g class="cls-2"><path class="cls-3" d="M181.3115,98.19v11.4586s-6.957-2.6191-10.8857,2.0462a8.1246,8.1246,0,0,0-2.046,5.5656v20.871H157.6579V98.19H168.38v4.42A16.6586,16.6586,0,0,1,181.3115,98.19Z" transform="translate(-70.604 -48.302)"/><path class="cls-3" d="M200.2166,91.3969H189.4947V79.9383h10.7219Zm0,46.7347H189.4947V98.19h10.7219Z" transform="translate(-70.604 -48.302)"/><path class="cls-3" d="M207.5817,117.9973a21.6428,21.6428,0,0,1,5.7292-14.8144,19.1791,19.1791,0,0,1,14.0779-6.22c8.5938,0,12.0315,5.8111,12.0315,5.8111V79.9383h10.8036V138.05H239.42v-4.829a14.3882,14.3882,0,0,1-12.0315,5.893C216.4209,139.1137,207.5817,129.7014,207.5817,117.9973Zm28.6463,8.5938a12.6071,12.6071,0,0,0,3.1923-8.5121,12.4563,12.4563,0,0,0-3.1923-8.5121,9.8765,9.8765,0,0,0-14.9781,0,12.4559,12.4559,0,0,0-3.1918,8.5121,12.6067,12.6067,0,0,0,3.1918,8.5121,9.8763,9.8763,0,0,0,14.9781,0Zm-1.9643-8.43a5.5656,5.5656,0,1,1-11.1312,0,5.5656,5.5656,0,1,1,11.1312,0Z" transform="translate(-70.604 -48.302)"/><path class="cls-3" d="M269.9453,91.3969H259.2234V79.9383h10.7219Zm0,46.7347H259.2234V98.19h10.7219Z" transform="translate(-70.604 -48.302)"/><path class="cls-3" d="M327.7269,138.4589c-4.5835,10.8858-11.1312,15.7966-21.6077,15.7966v-10.149c3.0284,0,8.43-.3274,11.2129-7.039L301.0448,98.2721h42.4784C335.9935,117.4242,328.3,137.1494,327.7269,138.4589Zm1.31-30.7745H316.0226l6.63,15.8783Z" transform="translate(-70.604 -48.302)"/></g><g class="cls-4"><path class="cls-5" d="M106.693,90.5274a24.6688,24.6688,0,0,1,8.1022-5.6115,24.1238,24.1238,0,0,1,5.2734-1.68V78.2878H93.087v28.78H99.3a26.9659,26.9659,0,0,1,1.9-8.0883A27.2883,27.2883,0,0,1,106.693,90.5274Z" transform="translate(-70.604 -48.302)"/><path class="cls-5" d="M108.4049,107.0681h11.6637V93.2375a16.1928,16.1928,0,0,0-7.0585,4.18A17.0839,17.0839,0,0,0,108.4049,107.0681Z" transform="translate(-70.604 -48.302)"/><path class="cls-5" d="M122.7668,107.0681h26.9815v-28.78H122.7667v4.58c.6343-.05,1.2718-.0833,1.9159-.0833a24.2623,24.2623,0,0,1,10.9167,2.4864,18.0659,18.0659,0,0,1,3.6392,2.3438V99.832s-5.9049-7.245-14.5559-7.245a16.8414,16.8414,0,0,0-1.9159.1134v14.3677Z" transform="translate(-70.604 -48.302)"/><path class="cls-5" d="M132.7844,123.9826l.2744-.1422V109.3165H122.7667v16.3255a16.2578,16.2578,0,0,0,1.9159.1165A20.2542,20.2542,0,0,0,132.7844,123.9826Z" transform="translate(-70.604 -48.302)"/><path class="cls-5" d="M142.3968,128.0315a19.9115,19.9115,0,0,1-4.4628,3.7643,25.15,25.15,0,0,1-13.2514,3.6938c-.6414,0-1.2795-.0339-1.9159-.0851v2.6923h26.9816v-28.78h-7.2141V127.889Z" transform="translate(-70.604 -48.302)"/><path class="cls-5" d="M118.3656,124.48a17.5843,17.5843,0,0,0,1.703.6037V109.3165H108.2767a16.8526,16.8526,0,0,0,4.7334,11.5409A18.46,18.46,0,0,0,118.3656,124.48Z" transform="translate(-70.604 -48.302)"/><path class="cls-5" d="M106.693,127.7472a26.1446,26.1446,0,0,1-5.4928-8.3815,27.28,27.28,0,0,1-1.9882-10.0492H93.087v28.78h26.9816v-3.0609a26.9625,26.9625,0,0,1-5.2734-1.6062A25.1982,25.1982,0,0,1,106.693,127.7472Z" transform="translate(-70.604 -48.302)"/></g><path class="cls-5" d="M183.56,95.9417V107.4s-6.9571-2.6191-10.8857,2.0462a8.1241,8.1241,0,0,0-2.046,5.5656v20.871h-10.722V95.9417h10.722v4.42A16.6585,16.6585,0,0,1,183.56,95.9417Z" transform="translate(-70.604 -48.302)"/><path class="cls-5" d="M202.4651,89.1484H191.7432V77.69h10.7219Zm0,46.7347H191.7432V95.9417h10.7219Z" transform="translate(-70.604 -48.302)"/><path class="cls-5" d="M209.83,115.7488a21.6428,21.6428,0,0,1,5.7292-14.8144,19.18,19.18,0,0,1,14.0779-6.22c8.5938,0,12.0315,5.8111,12.0315,5.8111V77.69h10.8036v58.1114H241.6687v-4.8289a14.3882,14.3882,0,0,1-12.0315,5.893C218.6694,136.8653,209.83,127.4529,209.83,115.7488Zm28.6464,8.5938a12.6071,12.6071,0,0,0,3.1922-8.5121,12.4567,12.4567,0,0,0-3.1922-8.5121,9.8766,9.8766,0,0,0-14.9782,0,12.4563,12.4563,0,0,0-3.1917,8.5121,12.6067,12.6067,0,0,0,3.1917,8.5121,9.8763,9.8763,0,0,0,14.9782,0Zm-1.9643-8.43a5.5656,5.5656,0,1,1-11.1312,0,5.5656,5.5656,0,1,1,11.1312,0Z" transform="translate(-70.604 -48.302)"/><path class="cls-5" d="M272.1938,89.1484H261.4719V77.69h10.7219Zm0,46.7347H261.4719V95.9417h10.7219Z" transform="translate(-70.604 -48.302)"/><path class="cls-5" d="M329.9753,136.2105c-4.5834,10.8857-11.1312,15.7965-21.6076,15.7965V141.858c3.0284,0,8.43-.3274,11.2129-7.039L303.2933,96.0236h42.4784C338.242,115.1757,330.5484,134.9009,329.9753,136.2105Zm1.31-30.7745H318.271l6.63,15.8782Z" transform="translate(-70.604 -48.302)"/><rect class="cls-6" x="203.2595" y="31.7845" width="22.0349" height="11.2423"/><rect class="cls-6" x="203.2595" y="49.7722" width="17.0883" height="11.2423"/><path class="cls-7" d="M108.9414,88.279a24.6705,24.6705,0,0,1,8.1023-5.6116,24.1238,24.1238,0,0,1,5.2734-1.68V76.0393H95.3355v28.78h6.2131a26.9713,26.9713,0,0,1,1.9-8.0882A27.2889,27.2889,0,0,1,108.9414,88.279Z" transform="translate(-70.604 -48.302)"/><path class="cls-7" d="M110.6534,104.82h11.6637V90.989a16.1928,16.1928,0,0,0-7.0585,4.18A17.0833,17.0833,0,0,0,110.6534,104.82Z" transform="translate(-70.604 -48.302)"/><path class="cls-7" d="M125.0152,104.82h26.9816v-28.78H125.0152v4.58c.6343-.05,1.2718-.0833,1.9158-.0833a24.2624,24.2624,0,0,1,10.9168,2.4864,18.0711,18.0711,0,0,1,3.6392,2.3439v12.217s-5.9049-7.245-14.556-7.245a16.8411,16.8411,0,0,0-1.9158.1135V104.82Z" transform="translate(-70.604 -48.302)"/><path class="cls-7" d="M135.0328,121.7341l.2745-.1422V107.0681H125.0152v16.3255a16.2347,16.2347,0,0,0,1.9158.1165A20.2538,20.2538,0,0,0,135.0328,121.7341Z" transform="translate(-70.604 -48.302)"/><path class="cls-7" d="M144.6452,125.7831a19.913,19.913,0,0,1-4.4627,3.7643,25.1514,25.1514,0,0,1-13.2515,3.6938c-.6414,0-1.2795-.034-1.9158-.0851v2.6923h26.9816v-28.78h-7.2141v18.5724Z" transform="translate(-70.604 -48.302)"/><path class="cls-7" d="M120.614,122.2311a17.6118,17.6118,0,0,0,1.7031.6036V107.0681h-11.792a16.8527,16.8527,0,0,0,4.7335,11.5409A18.4629,18.4629,0,0,0,120.614,122.2311Z" transform="translate(-70.604 -48.302)"/><path class="cls-7" d="M108.9414,125.4988a26.1473,26.1473,0,0,1-5.4928-8.3815,27.2833,27.2833,0,0,1-1.9882-10.0492H95.3355v28.78h26.9816v-3.061a26.9468,26.9468,0,0,1-5.2734-1.6062A25.2,25.2,0,0,1,108.9414,125.4988Z" transform="translate(-70.604 -48.302)"/><rect class="cls-7" x="205.508" y="29.5361" width="22.0349" height="11.2423"/><rect class="cls-7" x="205.508" y="47.5238" width="17.0883" height="11.2423"/></svg>