<svg id="Layer_1" data-name="Layer 1" xmlns="http://www.w3.org/2000/svg" width="393.1862" height="121.7072" viewBox="0 0 393.1862 121.7072"><defs><style>.cls-1,.cls-4{opacity:0.1;}.cls-2,.cls-4{fill:#383433;}.cls-3{fill:#3aa675;}</style></defs><title>gridify-light-logo</title><g class="cls-1"><path class="cls-2" d="M43.4772,83.8461a38.3868,38.3868,0,0,1,12.6074-8.7319A37.5411,37.5411,0,0,1,64.29,72.5008v-7.7H22.3058v44.7831h9.6679A41.966,41.966,0,0,1,34.93,96.9982,42.4606,42.4606,0,0,1,43.4772,83.8461Z" transform="translate(-22.3058 -61.302)"/><path class="cls-2" d="M46.141,109.5839H64.29V88.0629a25.1993,25.1993,0,0,0-10.9833,6.5039A26.5831,26.5831,0,0,0,46.141,109.5839Z" transform="translate(-22.3058 -61.302)"/><path class="cls-2" d="M68.4885,109.5839h41.9843V64.8007H68.4885v7.127c.9869-.0778,1.979-.13,2.9811-.13a37.7524,37.7524,0,0,1,16.9869,3.869,28.113,28.113,0,0,1,5.6626,3.6471v19.01S84.931,87.0508,71.47,87.0508a26.1955,26.1955,0,0,0-2.9811.1765v22.3565Z" transform="translate(-22.3058 -61.302)"/><path class="cls-2" d="M84.0763,135.9034l.4271-.2212v-22.6H68.4885v25.403a25.2577,25.2577,0,0,0,2.9811.1813A31.5165,31.5165,0,0,0,84.0763,135.9034Z" transform="translate(-22.3058 -61.302)"/><path class="cls-2" d="M99.0335,142.2038a30.9859,30.9859,0,0,1-6.9442,5.8573,39.1345,39.1345,0,0,1-20.62,5.7477c-.998,0-1.9909-.0528-2.9811-.1324v4.1893h41.9843V113.0826H99.2474V141.982Z" transform="translate(-22.3058 -61.302)"/><path class="cls-2" d="M61.64,136.6767a27.37,27.37,0,0,0,2.65.9393V113.0826H45.9414a26.2237,26.2237,0,0,0,7.3654,17.958A28.7276,28.7276,0,0,0,61.64,136.6767Z" transform="translate(-22.3058 -61.302)"/><path class="cls-2" d="M43.4772,141.7614A40.6835,40.6835,0,0,1,34.93,128.72a42.452,42.452,0,0,1-3.0937-15.6369H22.3058v44.7831H64.29v-4.763a41.9372,41.9372,0,0,1-8.2055-2.4992A39.2119,39.2119,0,0,1,43.4772,141.7614Z" transform="translate(-22.3058 -61.302)"/></g><path class="cls-2" d="M163.085,92.2708v17.83s-10.8255-4.0754-16.9386,3.184a12.642,12.642,0,0,0-3.1837,8.66v32.476H126.279v-62.15h16.6837v6.8771A25.9218,25.9218,0,0,1,163.085,92.2708Z" transform="translate(-22.3058 -61.302)"/><path class="cls-2" d="M192.502,81.7H175.8183V63.87H192.502Zm0,72.7208H175.8183v-62.15H192.502Z" transform="translate(-22.3058 -61.302)"/><path class="cls-2" d="M203.9622,123.0914A33.6771,33.6771,0,0,1,212.877,100.04a29.8439,29.8439,0,0,1,21.9058-9.6791c13.3722,0,18.7214,9.0422,18.7214,9.0422V63.87H270.315v90.4233H253.5042V146.78s-5.7312,9.17-18.7214,9.17C217.7164,155.9493,203.9622,141.3034,203.9622,123.0914Zm44.5748,13.3722a19.6169,19.6169,0,0,0,4.9672-13.2451,19.3827,19.3827,0,0,0-4.9672-13.2451,15.3683,15.3683,0,0,0-23.3066,0,19.3822,19.3822,0,0,0-4.9665,13.2451,19.6163,19.6163,0,0,0,4.9665,13.2451,15.3678,15.3678,0,0,0,23.3066,0ZM245.48,123.3459a8.66,8.66,0,1,1-17.3205,0,8.66,8.66,0,0,1,17.3205,0Z" transform="translate(-22.3058 -61.302)"/><path class="cls-2" d="M301.0023,81.7H284.3186V63.87h16.6837Zm0,72.7208H284.3186v-62.15h16.6837Z" transform="translate(-22.3058 -61.302)"/><path class="cls-2" d="M390.9124,154.9305c-7.132,16.9386-17.3206,24.58-33.6223,24.58V163.7182c4.7123,0,13.1181-.5094,17.4477-10.9529l-25.3436-60.367H415.492C403.7755,122.2,391.8041,152.8928,390.9124,154.9305Zm2.0377-47.8863H372.7l10.3163,24.7071Z" transform="translate(-22.3058 -61.302)"/><path class="cls-3" d="M46.9758,80.3474a38.3872,38.3872,0,0,1,12.6075-8.7319,37.5411,37.5411,0,0,1,8.2055-2.6134v-7.7H25.8045v44.7831h9.6679A41.9646,41.9646,0,0,1,38.4288,93.5,42.4615,42.4615,0,0,1,46.9758,80.3474Z" transform="translate(-22.3058 -61.302)"/><path class="cls-3" d="M49.64,106.0852H67.7888V84.5642a25.1985,25.1985,0,0,0-10.9833,6.504A26.5825,26.5825,0,0,0,49.64,106.0852Z" transform="translate(-22.3058 -61.302)"/><path class="cls-3" d="M71.9872,106.0852h41.9842V61.302H71.9872v7.127c.9869-.0778,1.9789-.13,2.9811-.13a37.7526,37.7526,0,0,1,16.9869,3.8689,28.1163,28.1163,0,0,1,5.6626,3.6471v19.01S88.43,83.5521,74.9683,83.5521a26.1942,26.1942,0,0,0-2.9811.1765v22.3565Z" transform="translate(-22.3058 -61.302)"/><path class="cls-3" d="M87.575,132.4047l.4271-.2212v-22.6H71.9872v25.403a25.2577,25.2577,0,0,0,2.9811.1813A31.5148,31.5148,0,0,0,87.575,132.4047Z" transform="translate(-22.3058 -61.302)"/><path class="cls-3" d="M102.5322,138.7051a30.9859,30.9859,0,0,1-6.9442,5.8573,39.1345,39.1345,0,0,1-20.62,5.7477c-.9981,0-1.991-.0528-2.9811-.1324v4.1893h41.9842V109.5839H102.7461v28.8994Z" transform="translate(-22.3058 -61.302)"/><path class="cls-3" d="M65.1388,133.178a27.3975,27.3975,0,0,0,2.65.9394V109.5839H49.44a26.2235,26.2235,0,0,0,7.3654,17.958A28.7276,28.7276,0,0,0,65.1388,133.178Z" transform="translate(-22.3058 -61.302)"/><path class="cls-3" d="M46.9758,138.2627a40.6849,40.6849,0,0,1-8.547-13.0419,42.4516,42.4516,0,0,1-3.0937-15.6369H25.8045V154.367H67.7888v-4.763a41.9351,41.9351,0,0,1-8.2055-2.4992A39.2123,39.2123,0,0,1,46.9758,138.2627Z" transform="translate(-22.3058 -61.302)"/><rect class="cls-4" x="281.2945" y="6.2976" width="34.2871" height="17.4934"/><rect class="cls-4" x="281.2945" y="34.2871" width="26.59" height="17.4934"/><rect class="cls-3" x="284.7932" y="2.799" width="34.2871" height="17.4934"/><rect class="cls-3" x="284.7932" y="30.7885" width="26.59" height="17.4934"/><path class="cls-4" d="M159.5863,95.77V113.6s-10.8255-4.0754-16.9386,3.184a12.642,12.642,0,0,0-3.1837,8.66V157.92H122.78V95.77H139.464v6.8771A25.9218,25.9218,0,0,1,159.5863,95.77Z" transform="translate(-22.3058 -61.302)"/><path class="cls-4" d="M189.0033,85.199H172.32V67.369h16.6837Zm0,72.7207H172.32V95.77h16.6837Z" transform="translate(-22.3058 -61.302)"/><path class="cls-4" d="M200.4635,126.59a33.6771,33.6771,0,0,1,8.9148-23.0517,29.8441,29.8441,0,0,1,21.9058-9.6791c13.3722,0,18.7214,9.0422,18.7214,9.0422V67.369h16.8108v90.4233H250.0055v-7.514s-5.7312,9.17-18.7214,9.17C214.2177,159.448,200.4635,144.8021,200.4635,126.59Zm44.5748,13.3722a19.6169,19.6169,0,0,0,4.9672-13.2451,19.3827,19.3827,0,0,0-4.9672-13.2451,15.3683,15.3683,0,0,0-23.3066,0,19.3822,19.3822,0,0,0-4.9665,13.2451,19.6163,19.6163,0,0,0,4.9665,13.2451,15.3678,15.3678,0,0,0,23.3066,0Zm-3.0566-13.1177a8.66,8.66,0,1,1-17.32,0,8.66,8.66,0,0,1,17.32,0Z" transform="translate(-22.3058 -61.302)"/><path class="cls-4" d="M297.5036,85.199H280.82V67.369h16.6837Zm0,72.7207H280.82V95.77h16.6837Z" transform="translate(-22.3058 -61.302)"/><path class="cls-4" d="M387.4137,158.4292c-7.132,16.9385-17.32,24.58-33.6222,24.58V167.2169c4.7122,0,13.118-.5094,17.4476-10.9529L345.8955,95.897h66.0979C400.2768,125.6983,388.3055,156.3915,387.4137,158.4292Zm2.0377-47.8863h-20.25L379.5177,135.25Z" transform="translate(-22.3058 -61.302)"/></svg>